<svg viewBox="0 0 200 220" fill="none" xmlns="http://www.w3.org/2000/svg">
  <defs>
    <linearGradient id="gw-shield-blue" x1="0%" y1="0%" x2="100%" y2="100%">
      <stop offset="0%" stop-color="#1E6EB6" />
      <stop offset="50%" stop-color="#0B3B73" />
      <stop offset="100%" stop-color="#071F3D" />
    </linearGradient>
    <linearGradient id="gw-shield-green" x1="0%" y1="0%" x2="100%" y2="100%">
      <stop offset="0%" stop-color="#79C76A" />
      <stop offset="50%" stop-color="#3FA652" />
      <stop offset="100%" stop-color="#2E7D32" />
    </linearGradient>
    <linearGradient id="gw-drop-blue" x1="0%" y1="0%" x2="0%" y2="100%">
      <stop offset="0%" stop-color="#4DA6E8" />
      <stop offset="100%" stop-color="#1E6EB6" />
    </linearGradient>
  </defs>

  <path d="M 100 10 C 145 22 178 35 186 46 C 186 118 152 182 100 214 C 48 182 14 118 14 46 C 22 35 55 22 100 10 Z" fill="url(#gw-shield-blue)" />
  <path d="M 100 22 C 138 32 165 43 172 52 C 172 112 142 168 100 198 C 58 168 28 112 28 52 C 35 43 62 32 100 22 Z" fill="none" stroke="url(#gw-shield-green)" stroke-width="10" stroke-linejoin="round" />
  <path d="M 100 27 C 134 36 158 46 165 54 C 165 108 138 160 100 190 C 62 160 35 108 35 54 C 42 46 66 36 100 27 Z" fill="#FFFFFF" />

  <g fill="#071F3D">
    <path d="M 52 75 V 50 H 58 V 54 H 64 V 50 H 70 V 75 Z" />
    <rect x="58" y="58" width="4" height="7" fill="#FFFFFF" rx="1" />
    <path d="M 130 75 V 50 H 136 V 54 H 142 V 50 H 148 V 75 Z" />
    <rect x="138" y="58" width="4" height="7" fill="#FFFFFF" rx="1" />
    <path d="M 70 75 V 58 H 130 V 75 Z" />
    <path d="M 74 58 V 52 H 78 V 58 H 82 V 52 H 86 V 58 H 90 V 52 H 94 V 58 H 98 V 52 H 102 V 58 H 106 V 52 H 110 V 58 H 114 V 52 H 118 V 58 H 122 V 52 H 126 V 58 Z" />
    <rect x="94" y="65" width="12" height="10" fill="#FFFFFF" rx="2" />
  </g>

  <path d="M 28 108 Q 100 80 172 98 C 168 112 135 120 100 120 Q 48 120 28 108 Z" fill="#FFFFFF" />
  <path d="M 28 106 Q 100 78 172 96" stroke="#071F3D" stroke-width="3" fill="none" />

  <g transform="translate(68, 110)">
    <path d="M 52 0 L 22 42" stroke="#1E6EB6" stroke-width="5" stroke-linecap="round" />
    <path d="M 22 42 L 5 56 C 2 58 5 66 12 66 L 36 50 Z" fill="url(#gw-shield-green)" />
    <path d="M 10 62 L 20 46 M 16 64 L 25 48 M 22 65 L 29 50" stroke="#FFFFFF" stroke-width="1.5" stroke-linecap="round" />
  </g>

  <path d="M 64 122 C 64 117 70 110 70 110 C 70 110 76 117 76 122 C 76 126 73 129 70 129 C 67 129 64 126 64 122 Z" fill="url(#gw-drop-blue)" />

  <g fill="#3FA652">
    <path d="M 125 110 Q 125 115 130 115 Q 125 115 125 120 Q 125 115 120 115 Q 125 115 125 110 Z" />
    <path d="M 142 125 Q 142 129 146 129 Q 142 129 142 133 Q 142 129 138 129 Q 142 129 142 125 Z" />
  </g>
</svg>